#!OML:ASF I:\Actors\actors\Patient Classification 2\Patient 1\Session 1\actor1.ASF
:FULLY-SPECIFIED
:DEGREES
555
root -0.691517 18.72 5.51896 2.30871 -6.63861 -2.077
lowerback 13.5329 -0.498223 -0.143627
upperback 3.41379 -0.648162 0.822202
thorax -3.97909 -0.322663 1.04943
lowerneck 0.313714 -0.981833 -0.388147
upperneck 0.453958 -1.32097 3.08895
head 0.11083 -0.658947 1.00532
rclavicle 1.66979e-014 -1.07344e-014
rhumerus 5.86464 15.5609 -29.6288
rradius 138.789
rwrist -68.7598
rhand 14.8081 -56.8118
rfingers 7.12502
rthumb 39.671 -82.1363
lclavicle 1.66979e-014 -1.07344e-014
lhumerus -44.8903 -1.3484 85.4174
lradius 51.7237
lwrist -0.289539
lhand -7.16537 -26.0646
lfingers 7.12502
lthumb 18.7118 3.05538
rfemur 0 0 0
rtibia 0
rfoot 0 0
rtoes 0
lfemur -6.16243 -1.00012 -12.1458
ltibia 22.9431
lfoot -22.2691 14.5352
ltoes -55.3313
556
root -0.69274 18.7182 5.52168 2.27692 -6.56648 -2.13431
lowerback 13.338 -0.444699 -0.0392772
upperback 3.41952 -0.562822 0.84877
thorax -3.86932 -0.281569 1.00176
lowerneck 0.364058 -0.993096 -0.526282
upperneck 0.864772 -1.34708 3.17693
head 0.229977 -0.668632 1.05541
rclavicle -1.90833e-014 -4.96962e-016
rhumerus 5.35801 15.978 -29.7952
rradius 138.796
rwrist -69.4328
rhand 13.2778 -56.0361
rfingers 7.12502
rthumb 38.2281 -81.7729
lclavicle -1.90833e-014 -4.96962e-016
lhumerus -44.8892 -1.60308 85.5536
lradius 51.871
lwrist -0.157644
lhand -7.0795 -26.0976
lfingers 7.12502
lthumb 18.7944 3.01446
rfemur 0 0 0
rtibia 0
rfoot 0 0
rtoes 0
lfemur -6.15478 -1.00446 -12.0704
ltibia 22.9869
lfoot -22.2595 14.4459
ltoes -55.3056
557
root -0.693742 18.7167 5.52352 2.22375 -6.51948 -2.18244
lowerback 13.2043 -0.39432 0.0423191
upperback 3.42854 -0.484864 0.875925
thorax -3.78878 -0.243791 0.969844
lowerneck 0.341702 -0.987606 -0.675786
upperneck 1.2983 -1.3517 3.22877
head 0.36792 -0.667099 1.09624
rclavicle 1.44119e-015 5.26779e-015
rhumerus 4.97069 16.3809 -29.9397
rradius 138.711
rwrist -69.8556
rhand 12.5199 -55.7169
rfingers 7.12502
rthumb 37.5123 -81.6472
lclavicle 1.44119e-015 5.26779e-015
lhumerus -44.8957 -1.86659 85.7001
lradius 52.0173
lwrist -0.0536578
lhand -7.05076 -26.0506
lfingers 7.12502
lthumb 18.822 3.05881
rfemur 0 0 0
rtibia 0
rfoot 0 0
rtoes 0
lfemur -6.11953 -0.986979 -12.012
ltibia 23.0309
lfoot -22.2404 14.4137
ltoes -55.4009
558
root -0.693229 18.7152 5.52619 2.14312 -6.47233 -2.2241
lowerback 13.1001 -0.372368 0.134338
upperback 3.43258 -0.444059 0.881579
thorax -3.72912 -0.224282 0.916136
lowerneck 0.367024 -0.991874 -0.635573
upperneck 1.68846 -1.36559 3.09204
head 0.481916 -0.671095 1.04641
rclavicle -1.01629e-014 -6.95746e-016
rhumerus 4.67899 16.802 -30.1831
rradius 138.542
rwrist -69.9539
rhand 12.5112 -55.8033
rfingers 7.12502
rthumb 37.504 -81.7358
lclavicle -1.01629e-014 -6.95746e-016
lhumerus -44.9451 -2.08048 85.7723
lradius 52.1462
lwrist -0.0122601
lhand -7.04744 -26.0183
lfingers 7.12502
lthumb 18.8252 3.0908
rfemur 0 0 0
rtibia 0
rfoot 0 0
rtoes 0
lfemur -6.05292 -0.924609 -11.9635
ltibia 23.0756
lfoot -22.1764 14.34
ltoes -55.4821
559
root -0.691552 18.7133 5.52875 2.06165 -6.42161 -2.27585
lowerback 12.9771 -0.350389 0.249822
upperback 3.4399 -0.399637 0.908456
thorax -3.65564 -0.203073 0.870713
lowerneck 0.453797 -1.02379 -0.638141
upperneck 2.01653 -1.41369 2.94439
head 0.567658 -0.693797 1.00081
rclavicle 1.75676e-014 8.84592e-015
rhumerus 4.46657 17.2411 -30.4505
rradius 138.305
rwrist -69.8334
rhand 12.4311 -55.8487
rfingers 7.12502
rthumb 37.4284 -81.8012
lclavicle 1.75676e-014 8.84592e-015
lhumerus -44.9532 -2.21542 85.8601
lradius 52.2004
lwrist 0.0411897
lhand -6.96585 -25.9974
lfingers 7.12502
lthumb 18.9037 3.10405
rfemur 0 0 0
rtibia 0
rfoot 0 0
rtoes 0
lfemur -5.98276 -0.926627 -11.9067
ltibia 23.1144
lfoot -22.1979 14.253
ltoes -55.4093
